<svg xmlns="http://www.w3.org/2000/svg" width="200" height="200" viewBox="0 0 200 200">
  <defs>
    <style>
      .cls-1 {
        fill-rule: evenodd;
        opacity: 0.25;
      }
    </style>
  </defs>
  <path id="I_LOVE_LINUX" data-name="I LOVE LINUX" class="cls-1" d="M25.7,91.8h9.24V33H25.7V91.8Zm28.979,0H79.126V83.4h-15.2V33h-9.24V91.8ZM91.642,46.524c0-4.2,1.848-5.8,4.788-5.8s4.788,1.6,4.788,5.8V78.276c0,4.2-1.848,5.8-4.788,5.8s-4.788-1.6-4.788-5.8V46.524ZM82.4,77.688c0,9.408,4.956,14.784,14.028,14.784s14.028-5.376,14.028-14.784V47.112c0-9.408-4.956-14.784-14.028-14.784S82.4,37.7,82.4,47.112V77.688ZM123.226,33H113.9l9.072,58.8H136.75L145.822,33h-8.484l-7.056,47.964Zm36.119,8.4h15.96V33H150.1V91.8h25.2V83.4h-15.96V66.18h12.684v-8.4H159.345V41.4ZM25.026,156.8H50.634V148H34.706V95.2h-9.68v61.6Zm29.831,0h9.68V95.2h-9.68v61.6Zm37.4,0H102.2V95.2H93.576v36.871L83.632,95.2H71.488v61.6H80.2V112.185Zm16.455-61.6v46.9c0,9.856,4.928,15.488,14.432,15.488s14.431-5.632,14.431-15.488V95.2h-9.152V142.72c0,4.4-1.936,5.984-5.015,5.984s-5.016-1.584-5.016-5.984V95.2h-9.68Zm58.783,0-7.48,22.7-7.3-22.7H142.679l10.119,29.92L141.975,156.8h9.063l8.008-24.376,7.92,24.376h10.208L166.35,125.121,176.47,95.2h-8.976Z"/>
</svg>
