<svg xmlns="http://www.w3.org/2000/svg" width="200" height="200" viewBox="0 0 200 200">
  <defs>
    <style>
      .cls-1 {
        fill-rule: evenodd;
        opacity: 0.25;
      }
    </style>
  </defs>
  <path id="DISPLAY:_INLINE_BLOCK" data-name="DISPLAY: INLINE BLOCK" class="cls-1" d="M7.05,51.4H19.58c7.921,0,11.809-4.392,11.809-12.457V13.453C31.389,5.388,27.5,1,19.58,1H7.05V51.4ZM19.436,8.2c2.52,0,4.032,1.3,4.032,4.9V39.3c0,3.6-1.512,4.9-4.032,4.9H14.971V8.2h4.464Zm16.99,43.2h7.921V1H36.426V51.4ZM49.1,13.093c0,14.4,15.481,16.345,15.481,26.714,0,3.6-1.584,4.9-4.1,4.9s-4.1-1.3-4.1-4.9v-3.6H48.881v3.1c0,8.065,4.032,12.673,11.809,12.673S72.5,47.367,72.5,39.3c0-14.4-15.481-16.345-15.481-26.714,0-3.6,1.44-4.968,3.96-4.968s3.96,1.368,3.96,4.968v2.088h7.489V13.093c0-8.065-3.96-12.673-11.665-12.673S49.1,5.028,49.1,13.093ZM88.7,1H77.032V51.4h7.921V32.462H88.7c7.921,0,11.809-4.392,11.809-12.457V13.453C100.506,5.388,96.618,1,88.7,1Zm0,7.2c2.52,0,3.888,1.152,3.888,4.752v7.561c0,3.6-1.368,4.752-3.888,4.752H84.953V8.2H88.7Zm15.838,43.2h20.954V44.2H112.456V1h-7.921V51.4ZM146.512,1H134.919l-8.065,50.4h7.273l1.368-9.145h9.721l1.368,9.145h7.993ZM140.32,9.924l3.816,25.49H136.5ZM165.663,51.4h7.921V34.694L183.593,1h-7.561l-6.049,22.97L163.935,1h-8.281l10.009,33.7V51.4Zm19.656-7.633V51.4h7.633V43.767h-7.633Zm0-27.434v7.633h7.633V16.333h-7.633ZM8.815,124.4H19.6V55.795H8.815V124.4Zm41.65,0H61.54V55.795h-9.6V96.86L40.86,55.795H27.335V124.4h9.7V74.71Zm18.813,0H97.8v-9.8H80.059v-58.8H69.278V124.4Zm33.221,0H113.28V55.795H102.5V124.4Zm41.65,0h11.075V55.795h-9.6V96.86L134.545,55.795H121.02V124.4h9.7V74.71Zm29.594-58.8h18.622v-9.8h-29.4V124.4h29.4v-9.8H173.743V94.508h14.8v-9.8h-14.8V65.6Zm-148.66,63.2H8.814V197.4H25.769c10.781,0,16.367-5.685,16.367-16.269v-5.587c0-7.252-2.254-12.447-8.037-14.7,4.8-2.254,6.959-6.762,6.959-13.819v-2.45C41.058,133.989,36.256,128.795,25.083,128.795ZM24.4,166.528c4.9,0,6.959,1.96,6.959,8.33v5.979c0,5.1-1.96,6.762-5.586,6.762H19.595V166.528h4.8ZM24.789,138.6c3.822,0,5.488,2.157,5.488,7.057v3.822c0,5.489-2.45,7.253-6.468,7.253H19.595V138.6h5.194ZM48.6,197.4h28.52v-9.8H59.382v-58.8H48.6V197.4Zm43.12-52.826c0-4.9,2.156-6.763,5.586-6.763s5.586,1.863,5.586,6.763v37.047c0,4.9-2.156,6.762-5.586,6.762s-5.586-1.862-5.586-6.762V144.574ZM80.94,180.935c0,10.976,5.782,17.249,16.367,17.249s16.367-6.273,16.367-17.249V145.26c0-10.977-5.782-17.249-16.367-17.249S80.94,134.283,80.94,145.26v35.675ZM141.7,171.82v9.8c0,4.9-2.156,6.664-5.586,6.664s-5.587-1.764-5.587-6.664V144.574c0-4.9,2.156-6.763,5.587-6.763s5.586,1.863,5.586,6.763v7.35h10.193V145.26c0-10.977-5.489-17.249-16.073-17.249s-16.074,6.272-16.074,17.249v35.675c0,10.976,5.489,17.249,16.074,17.249s16.073-6.273,16.073-17.249V171.82H141.7Zm41.355,25.58h11.075l-15-38.027,15-30.578H183.35l-14.113,29.892V128.795H158.456V197.4h10.781V176.328l3.332-6.272Z"/>
</svg>
