<svg xmlns="http://www.w3.org/2000/svg" width="200" height="200" viewBox="0 0 200 200">
  <defs>
    <style>
      .cls-1 {
        fill-rule: evenodd;
        opacity: 0.25;
      }
    </style>
  </defs>
  <path id="_RM_-RF_ROOT" data-name="$RM -RF /ROOT" class="cls-1" d="M11.088,50.4c0,14.6,15.695,15.111,15.695,25.622,0,3.65-1.606,4.964-4.161,4.964s-4.161-1.314-4.161-4.964V72.009H10.869v3.5c0,6.935,2.92,11.388,8.687,12.556v3.723h6.57V88.068c5.694-1.168,8.687-5.621,8.687-12.556,0-14.6-15.694-15.111-15.694-25.622,0-3.65,1.46-5.037,4.015-5.037s4.015,1.387,4.015,5.037v2.117H34.74V50.4c0-6.935-2.92-11.315-8.614-12.483v-3.8h-6.57v3.8C13.935,39.159,11.088,43.539,11.088,50.4Zm54.092,38.1a15.048,15.048,0,0,1-.876-6.2V74.417c0-5.329-1.314-9.2-5.329-10.877,3.577-1.679,5.256-5.11,5.256-10.366V49.16c0-7.884-3.577-11.753-11.9-11.753H40.215v51.1h8.03V67.7h2.774c3.65,0,5.256,1.752,5.256,6.5v8.03c0,4.161.292,4.964,0.73,6.278H65.18Zm-13.067-43.8c2.847,0,4.088,1.606,4.088,5.256V55c0,4.088-1.825,5.4-4.818,5.4H48.245V44.707h3.869Zm28.543-7.3H69.488v51.1H76.5V52.372l5.986,36.134h7.592l5.548-36.645V88.506h7.592v-51.1H92.044l-5.475,36.28ZM120,66.607h14.6v-7.3H120v7.3Zm45.04,21.9a15.048,15.048,0,0,1-.876-6.2V74.417c0-5.329-1.314-9.2-5.329-10.877,3.577-1.679,5.256-5.11,5.256-10.366V49.16c0-7.884-3.577-11.753-11.9-11.753H140.077v51.1h8.029V67.7h2.774c3.65,0,5.256,1.752,5.256,6.5v8.03c0,4.161.292,4.964,0.73,6.278h8.176Zm-13.067-43.8c2.847,0,4.088,1.606,4.088,5.256V55c0,4.088-1.825,5.4-4.818,5.4h-3.139V44.707h3.869Zm25.477,0h13.212v-7.3H169.422v51.1h8.03V67.41h10.366v-7.3H177.452v-15.4ZM6.833,161.506h9.215l26.772-67.9H33.605Zm73.526,0c-1.067-2.522-1.164-4.947-1.164-8.245V142.785c0-7.081-1.746-12.222-7.081-14.453,4.753-2.231,6.984-6.79,6.984-13.774v-5.335c0-10.476-4.753-15.617-15.811-15.617h-16.1v67.9h10.67V133.861h3.686c4.85,0,6.984,2.328,6.984,8.633v10.67c0,5.529.388,6.6,0.97,8.342H80.359ZM63,103.306c3.783,0,5.432,2.134,5.432,6.984v6.693c0,5.432-2.425,7.178-6.4,7.178H57.855V103.306H63Zm32.979,5.917c0-4.85,2.134-6.693,5.529-6.693s5.529,1.843,5.529,6.693v36.666c0,4.85-2.134,6.693-5.529,6.693s-5.529-1.843-5.529-6.693V109.223ZM85.305,145.21c0,10.864,5.723,17.072,16.2,17.072s16.2-6.208,16.2-17.072V109.9c0-10.864-5.723-17.072-16.2-17.072s-16.2,6.208-16.2,17.072V145.21Zm49.082-35.987c0-4.85,2.134-6.693,5.529-6.693s5.529,1.843,5.529,6.693v36.666c0,4.85-2.134,6.693-5.529,6.693s-5.529-1.843-5.529-6.693V109.223Zm-10.67,35.987c0,10.864,5.723,17.072,16.2,17.072s16.2-6.208,16.2-17.072V109.9c0-10.864-5.723-17.072-16.2-17.072s-16.2,6.208-16.2,17.072V145.21Zm36.18-41.9h11.155v58.2h10.67v-58.2h11.155v-9.7H159.9v9.7Z"/>
</svg>
